<svg xmlns="http://www.w3.org/2000/svg" fill="none" viewBox="0 0 256 45">
  <path fill="#F8FAFC" d="M19.2059.569025c2.149 0 3.9983.245058 5.5442.735205 1.5449.49015 2.8651 1.35491 3.958 2.59838 1.131 1.24417 2.129 3.01781 2.9962 5.31761l8.4296 22.50918c.6028 1.5446 1.0935 2.731 1.4704 3.5602.4141.7906.8069 1.3397 1.1834 1.6416.4144.2638.8876.3977 1.415.3979.4136 0 .7536-.0179 1.0172-.0554.2637-.0754.5674-.1513.9064-.2266v6.5009c-.3013.1507-.7524.2848-1.3546.3979-.5655.1508-1.1719.2619-1.8128.3374-.6407.0753-1.207.1158-1.697.1158-1.5077-.0002-2.7514-.2679-3.7314-.7957-.9422-.5278-1.6956-1.2632-2.261-2.2056-.5653-.9422-1.0558-2.0345-1.4704-3.2781l-2.4322-7.5233c-.2261-.7535-.4892-1.5074-.7906-2.261-.2639-.7917-.5317-1.585-.7956-2.3768-.2637-.8287-.4864-1.6411-.6748-2.4322-.1507-.8289-.2671-1.6409-.3424-2.4322h-.1712c-.1131 1.6585-.3357 3.1877-.6748 4.5824-.3016 1.3573-.716 2.9439-1.2438 4.7537L22.8819 43.83h-9.2152l11.1388-30.6518-.6244-1.8078c-.6032-1.77177-1.4676-2.88602-2.5984-3.33858-1.0934-.45244-2.3768-.67981-3.8472-.67981-.6407.00002-1.2248.04044-1.7524.11582-.5279.0754-.9826.15119-1.3597.2266V1.0172c.3389-.075317.7367-.146261 1.1885-.221572.4901-.075405 1.0206-.133506 1.5862-.171211.565-.037634 1.1675-.055379 1.8078-.055392"/>
  <path fill="#F8FAFC" fill-rule="evenodd" d="M65.589 10.6453c3.2996 0 6.1672.6977 8.6008 2.0999 2.4339 1.4025 4.334 3.3652 5.6953 5.8816 1.3606 2.5159 2.0394 5.5284 2.0394 9.0339-.0002 3.4226-.6789 6.3923-2.0394 8.908-1.3201 2.4751-3.201 4.3752-5.6349 5.6953-2.3921 1.3192-5.2604 1.979-8.6008 1.979-3.2992-.0003-6.1867-.6594-8.6613-1.979-2.4751-1.3613-4.3944-3.2806-5.7557-5.7557-1.3612-2.5164-2.0394-5.4893-2.0394-8.9131.0003-3.5054.6784-6.5181 2.0394-9.0339 1.4023-2.5567 3.3419-4.5155 5.8162-5.8766 2.475-1.3612 5.3229-2.0393 8.5404-2.0394m-.0605 7.9815c-1.8559 0-3.362.4525-4.5169 1.3596-1.1551.8663-2.0017 1.9823-2.538 3.3436-.4943 1.3601-.745 2.7816-.7452 4.2652 0 1.5258.2505 2.9505.7452 4.2702.5363 1.3201 1.3829 2.3927 2.538 3.2178 1.155.825 2.6607 1.2387 4.5169 1.2387 1.8971-.0001 3.4226-.4138 4.5774-1.2387 1.1549-.825 1.9826-1.8979 2.4775-3.2178.5358-1.3607.8007-2.7859.8007-4.2702-.0003-1.4833-.2653-2.9053-.8007-4.2652-.495-1.3613-1.3224-2.4773-2.4775-3.3436-1.1135-.9072-2.6393-1.3595-4.5774-1.3596M126.243 10.7057c4.744.0001 8.251 1.3614 10.519 4.0839 2.269 2.6812 3.404 6.4966 3.405 11.446v17.5743h-7.801l-.121-4.2098c-1.031 1.4438-2.209 2.4973-3.529 3.1574-1.279.6595-2.516 1.0738-3.712 1.2387-1.195.1648-2.163.2466-2.905.2468-1.485 0-2.933-.1877-4.336-.559-1.36-.4125-2.579-1.0286-3.651-1.8531-1.072-.8249-1.914-1.8596-2.533-3.0969-.618-1.2375-.931-2.6808-.931-4.3306 0-2.2273.457-4.0028 1.364-5.3227.908-1.3603 2.126-2.3909 3.651-3.0919 1.526-.7008 3.278-1.1776 5.257-1.425 2.021-.2475 4.105-.3676 6.25-.3676h4.703c0-1.1962-.226-2.2499-.68-3.1574-.412-.9487-1.052-1.6703-1.919-2.1653-.866-.5363-1.982-.8057-3.343-.8057-.865.0002-1.709.1256-2.533.3726-.784.2063-1.448.5141-1.984.9266-.536.4124-.883.9518-1.048 1.6114h-8.787c.248-1.8151.825-3.364 1.733-4.6428.907-1.3197 2.043-2.3929 3.404-3.2178 1.36-.8242 2.844-1.4216 4.451-1.7927 1.65-.4125 3.343-.6194 5.076-.6194m-.247 19.3066c-.866 0-1.713.0384-2.538.1209-.783.0825-1.505.251-2.165.4985-.618.206-1.114.5532-1.486 1.0474-.371.495-.558 1.159-.558 1.984 0 .8233.208 1.5231.619 2.0999.454.5363 1.055.95 1.798 1.2387.742.2472 1.546.3727 2.412.3727 1.443-.0001 2.762-.2891 3.958-.8661 1.196-.5776 2.149-1.3616 2.85-2.3517.701-.9898 1.047-2.1065 1.047-3.3436v-.8007zM161.845 10.6453c2.474 0 4.64.4091 6.496 1.2337 1.897.8247 3.485 1.9805 4.764 3.4645 1.32 1.4851 2.291 3.2217 2.91 5.2018.66 1.9383.968 4.0416.927 6.3097 0 .5775-.02 1.1355-.061 1.6718-.041.5354-.123 1.071-.247 1.6064h-22.338c.124 1.2375.475 2.3727 1.053 3.404.577 1.0312 1.381 1.8588 2.412 2.4776 1.072.5769 2.392.8659 3.958.8661 1.031 0 1.984-.106 2.85-.3122.865-.2475 1.608-.6183 2.226-1.1129.618-.4949 1.052-1.0724 1.299-1.7322h8.54c-.536 2.4335-1.546 4.4349-3.031 6.0024-1.444 1.5676-3.2 2.722-5.262 3.4645-2.062.7011-4.228 1.0524-6.496 1.0525-3.424 0-6.334-.6832-8.727-2.0445-2.391-1.3608-4.225-3.2773-5.504-5.7507-1.278-2.516-1.918-5.4463-1.918-8.7871 0-3.3819.659-6.3316 1.979-8.8476 1.32-2.5575 3.177-4.5587 5.569-6.0025 2.434-1.4438 5.301-2.1653 8.601-2.1653m-.186 7.0499c-1.568 0-2.886.3131-3.958.9316-1.032.6187-1.816 1.4222-2.352 2.412-.495.9487-.784 1.959-.866 3.0315h14.17c-.041-1.1129-.331-2.1438-.866-3.0919-.495-.9897-1.261-1.7742-2.291-2.3516-.99-.6188-2.27-.9316-3.837-.9316" clip-rule="evenodd"/>
  <path fill="#F8FAFC" d="M8.66127 43.83H0V.020143h8.66127zM106.715 10.7057h.992v8.3541h-2.045c-1.937.0001-3.627.3278-5.07.987-1.4442.66-2.5603 1.6944-3.3441 3.0969-.7421 1.4024-1.1129 3.1974-1.1129 5.3831v15.2831h-8.6612V11.1992h7.7951l.5539 3.8976c.8249-1.2373 1.7537-2.1659 2.7847-2.7847 1.0309-.6598 2.1045-1.0928 3.2175-1.2992 1.114-.2474 2.25-.3675 3.404-.3676.537 0 1.032.0192 1.486.0604M193.599 11.1992h7.116v7.7347h-7.116v12.7452c0 1.361.251 2.434.746 3.2178.495.7837 1.606 1.1782 3.338 1.1783h2.725v7.7347h-3.097c-2.722-.0001-5.013-.3321-6.869-.992-1.814-.66-3.196-1.7721-4.144-3.3386-.908-1.6089-1.36-3.7976-1.36-6.5614v-13.984h-4.829v-7.7347h4.829V2.47753h8.661zM213.848 14.9759c.949-1.1138 2.002-1.9796 3.157-2.5983 1.195-.6183 2.39-1.0517 3.585-1.2992 1.238-.2888 2.373-.4331 3.404-.4331 3.052 0 5.444.6789 7.176 2.0394 1.733 1.3613 2.974 3.1989 3.717 5.509.742 2.3095 1.112 4.8459 1.112 7.6088v18.0074h-8.661V27.0413c0-.9901-.106-1.981-.312-2.971-.165-.99-.473-1.8994-.927-2.7243-.453-.8655-1.094-1.5446-1.918-2.0394-.825-.5361-1.918-.8055-3.278-.8057-1.279 0-2.376.2694-3.284.8057-.906.5361-1.648 1.2584-2.225 2.1653-.536.8655-.926 1.8342-1.174 2.9055-.247 1.0718-.372 2.146-.372 3.2178v16.2147h-8.662V0h8.662z"/>
  <path fill="url(#a)" d="M250.022 44.4199c-1.079 0-2.075-.2698-2.989-.8095-.913-.4981-1.639-1.1831-2.179-2.0548-.498-.9133-.747-1.9511-.747-3.1135 0-1.6189.56-2.9888 1.681-4.1097 1.162-1.1623 2.574-1.7435 4.234-1.7435 1.661 0 3.072.5812 4.234 1.7435 1.163 1.1209 1.744 2.4908 1.744 4.1097 0 1.1624-.27 2.2002-.81 3.1135-.539.8717-1.266 1.5567-2.179 2.0548-.872.5397-1.868.8095-2.989.8095"/>
  <defs>
    <linearGradient id="a" x1="247" x2="252" y1="33" y2="44" gradientUnits="userSpaceOnUse">
      <stop stop-color="#D69A6A"/>
      <stop offset="1" stop-color="#E39D64"/>
    </linearGradient>
  </defs>
</svg>
